<?xml version="1.0" encoding="UTF-8" standalone="no"?>
<svg
   xmlns:dc="http://purl.org/dc/elements/1.1/"
   xmlns:cc="http://creativecommons.org/ns#"
   xmlns:rdf="http://www.w3.org/1999/02/22-rdf-syntax-ns#"
   xmlns:svg="http://www.w3.org/2000/svg"
   xmlns="http://www.w3.org/2000/svg"
   xmlns:sodipodi="http://sodipodi.sourceforge.net/DTD/sodipodi-0.dtd"
   xmlns:inkscape="http://www.inkscape.org/namespaces/inkscape"
   id="f38ee091-c82c-4da1-851f-4c077abd9110"
   data-name="Layer 1"
   width="1068"
   height="831.71426"
   viewBox="0 0 1068 831.71426"
   version="1.1"
   sodipodi:docname="21.svg"
   inkscape:version="1.0.2 (e86c870879, 2021-01-15)">
  <metadata
     id="metadata89">
    <rdf:RDF>
      <cc:Work
         rdf:about="">
        <dc:format>image/svg+xml</dc:format>
        <dc:type
           rdf:resource="http://purl.org/dc/dcmitype/StillImage" />
        <dc:title>online wishes</dc:title>
      </cc:Work>
    </rdf:RDF>
  </metadata>
  <defs
     id="defs87" />
  <sodipodi:namedview
     pagecolor="#ffffff"
     bordercolor="#666666"
     borderopacity="1"
     objecttolerance="10"
     gridtolerance="10"
     guidetolerance="10"
     inkscape:pageopacity="0"
     inkscape:pageshadow="2"
     inkscape:window-width="1920"
     inkscape:window-height="1043"
     id="namedview85"
     showgrid="false"
     inkscape:zoom="0.88371699"
     inkscape:cx="395.10753"
     inkscape:cy="220.45223"
     inkscape:window-x="0"
     inkscape:window-y="0"
     inkscape:window-maximized="1"
     inkscape:current-layer="f38ee091-c82c-4da1-851f-4c077abd9110" />
  <title
     id="title2">online wishes</title>
  <path
     d="M904.08458,343.52969C859.16819,166.90825,703.96793,39.41226,521.7964,34.29851,425.48777,31.595,324.14421,63.5363,250.35863,175.31049c-131.89969,199.80845,8.10555,337.88223,105.7135,403.49213a610.75776,610.75776,0,0,1,126.24112,113.4651c65.931,78.23772,192.76719,175.45908,343.82337,23.12816C935.62233,604.98624,934.00333,461.177,904.08458,343.52969Z"
     transform="translate(-66 -34.14287)"
     fill="#f2f2f2"
     id="path4" />
  <path
     d="M1134,382.85713c0,45.83964-37.16037,119-83,119s-83-73.16036-83-119a83,83,0,1,1,166,0Z"
     transform="translate(-66 -34.14287)"
     fill="#ff6584"
     id="path6" />
  <path
     d="M1054.074,504.80854c-10.43048,3.59136-12.92756,17.81494-9.33986,28.24668s11.18624,19.08463,15.00958,29.43232a88.19944,88.19944,0,0,1,3.74052,16.04114c2.18414,12.981,4.37428,26.19026,2.69137,39.24565-1.59646,12.38466-6.614,24.06061-12.21177,35.22275a329.51138,329.51138,0,0,1-39.3229,60.69117"
     transform="translate(-66 -34.14287)"
     fill="none"
     stroke="#2f2e41"
     stroke-width="2"
     id="path8" />
  <path
     d="M1059,509.85713q-8-5.13386-16,0v-16h16Z"
     transform="translate(-66 -34.14287)"
     fill="#ff6584"
     id="path10" />
  <path
     d="M1043.04193,501.51827a17.60008,17.60008,0,0,0,16.02856-.06574"
     transform="translate(-66 -34.14287)"
     fill="none"
     stroke="#2f2e41"
     stroke-width="2"
     id="path12" />
  <ellipse
     cx="1019.5"
     cy="313.71426"
     rx="17.5"
     ry="21"
     fill="#fff"
     opacity="0.4"
     id="ellipse14" />
  <path
     d="M66,369.85713c0,45.83964,37.16037,119,83,119s83-73.16036,83-119a83,83,0,0,0-166,0Z"
     transform="translate(-66 -34.14287)"
     fill="#ff6584"
     id="path16"
     style="fill:#65a3ff;fill-opacity:1" />
  <path
     d="M145.926,491.80854c10.43048,3.59136,12.92756,17.81494,9.33986,28.24668s-11.18624,19.08463-15.00958,29.43232a88.19944,88.19944,0,0,0-3.74052,16.04114c-2.18414,12.981-4.37428,26.19026-2.69137,39.24565,1.59646,12.38466,6.614,24.06061,12.21177,35.22275a329.51138,329.51138,0,0,0,39.3229,60.69117"
     transform="translate(-66 -34.14287)"
     fill="none"
     stroke="#2f2e41"
     stroke-width="2"
     id="path18" />
  <path
     d="M141,496.85713q8-5.13386,16,0v-16H141Z"
     transform="translate(-66 -34.14287)"
     fill="#ff6584"
     id="path20" />
  <path
     d="M156.95807,488.51827a17.60008,17.60008,0,0,1-16.02856-.06574"
     transform="translate(-66 -34.14287)"
     fill="none"
     stroke="#2f2e41"
     stroke-width="2"
     id="path22" />
  <ellipse
     cx="48.5"
     cy="300.71426"
     rx="17.5"
     ry="21"
     fill="#fff"
     opacity="0.4"
     id="ellipse24" />
  <path
     d="M1074,734.85713c0,47.22035-222.06676,131-496,131s-470-169.77965-470-217,196.06676,46,470,46S1074,687.63679,1074,734.85713Z"
     transform="translate(-66 -34.14287)"
     fill="#3f3d56"
     id="path26" />
  <path
     d="M1074,734.85713c0,47.22035-222.06676,131-496,131s-470-169.77965-470-217,196.06676,46,470,46S1074,687.63679,1074,734.85713Z"
     transform="translate(-66 -34.14287)"
     opacity="0.1"
     id="path28"
     style="fill:#3d5651;fill-opacity:1" />
  <path
     d="M1074,734.35713c0,47.22035-222.06676,85.5-496,85.5s-470-123.77965-470-171,196.06676,0,470,0S1074,687.13679,1074,734.35713Z"
     transform="translate(-66 -34.14287)"
     fill="#3f3d56"
     id="path30"
     style="fill:#e5ece4;fill-opacity:1" />
  <path
     d="M502.19027,601.28838,492.1456,665.41974s-49.4507,26.27068-14.68068,27.04335,198.57544,0,198.57544,0,31.67935,0-18.544-27.816l-10.04467-67.222Z"
     transform="translate(-66 -34.14287)"
     fill="#2f2e41"
     id="path32" />
  <path
     d="M470.47028,691.76723c7.89666-7.02631,21.67529-14.34748,21.67529-14.34748l10.04468-64.1314,145.26141.13665,10.04468,63.22205c11.71179,6.48657,18.967,11.45935,23.21142,15.27338,6.4505-1.47175,13.4997-6.941-23.21142-27.27338L647.45166,597.425l-145.26141,3.86335-10.04468,64.1314S450.59247,687.49764,470.47028,691.76723Z"
     transform="translate(-66 -34.14287)"
     opacity="0.1"
     id="path34" />
  <rect
     x="180.8238"
     y="120.15761"
     width="654.449"
     height="455.87357"
     rx="23.01005"
     fill="#2f2e41"
     id="rect36" />
  <rect
     x="202.84481"
     y="144.49663"
     width="610.40698"
     height="341.51884"
     fill="#3f3d56"
     id="rect38"
     style="fill:#fcfcfc;fill-opacity:1" />
  <circle
     cx="508.0483"
     cy="133.67929"
     r="3.86334"
     fill="#f2f2f2"
     id="circle40" />
  <path
     d="M901.27281,547.20168V587.164a23.00716,23.00716,0,0,1-23.01005,23.01H269.83385a23.00716,23.00716,0,0,1-23.01-23.01V547.20168Z"
     transform="translate(-66 -34.14287)"
     fill="#2f2e41"
     id="path42" />
  <polygon
     points="678.808 700.044 678.808 707.771 263.113 707.771 263.113 701.59 263.685 700.044 273.93 672.228 670.308 672.228 678.808 700.044"
     fill="#2f2e41"
     id="polygon44" />
  <path
     d="M904.7807,726.62267c-.7572,3.23743-3.61608,6.65275-10.07556,9.88244-23.18,11.59-70.31271-3.09066-70.31271-3.09066s-36.31535-6.18134-36.31535-22.40735a28.97618,28.97618,0,0,1,3.18339-1.893c9.74552-5.15588,42.05851-17.87845,99.35285.5387a23.89452,23.89452,0,0,1,10.8907,7.13693C903.82573,719.50754,905.64608,722.95493,904.7807,726.62267Z"
     transform="translate(-66 -34.14287)"
     fill="#2f2e41"
     id="path46" />
  <path
     d="M904.7807,726.62267c-28.37231,10.87148-53.66169,11.68272-79.6156-6.34356-13.089-9.08658-24.98034-11.33506-33.90463-11.165,9.74552-5.15588,42.05851-17.87845,99.35285.5387a23.89452,23.89452,0,0,1,10.8907,7.13693C903.82573,719.50754,905.64608,722.95493,904.7807,726.62267Z"
     transform="translate(-66 -34.14287)"
     opacity="0.1"
     id="path48" />
  <ellipse
     cx="803.20712"
     cy="683.04557"
     rx="10.04467"
     ry="3.09067"
     fill="#f2f2f2"
     id="ellipse50" />
  <circle
     cx="508.0483"
     cy="544.73817"
     r="14.68067"
     fill="#f2f2f2"
     id="circle52" />
  <polygon
     points="678.808 700.044 678.808 707.771 263.113 707.771 263.113 701.59 263.685 700.044 678.808 700.044"
     opacity="0.1"
     id="polygon54" />
  <path
     d="M937.074,338.80854c-10.43048,3.59136-12.92756,17.81494-9.33986,28.24668s11.18624,19.08463,15.00958,29.43232a88.19944,88.19944,0,0,1,3.74052,16.04114c2.18414,12.981,4.37428,26.19026,2.69137,39.24565-1.59646,12.38466-6.614,24.06061-12.21177,35.22275a329.51138,329.51138,0,0,1-39.3229,60.69117"
     transform="translate(-66 -34.14287)"
     fill="none"
     stroke="#2f2e41"
     stroke-width="2"
     id="path56" />
  <path
     d="M1017,216.85713c0,45.83964-37.16037,119-83,119s-83-73.16036-83-119a83,83,0,0,1,166,0Z"
     transform="translate(-66 -34.14287)"
     fill="#15c7b2"
     id="path58" />
  <path
     d="M942,343.85713q-8-5.13386-16,0v-16h16Z"
     transform="translate(-66 -34.14287)"
     fill="#15c7b2"
     id="path60" />
  <path
     d="M926.04193,335.51827a17.60008,17.60008,0,0,0,16.02856-.06574"
     transform="translate(-66 -34.14287)"
     fill="none"
     stroke="#2f2e41"
     stroke-width="2"
     id="path62" />
  <ellipse
     cx="902.5"
     cy="147.71426"
     rx="17.5"
     ry="21"
     fill="#fff"
     opacity="0.4"
     id="ellipse64" />
  <rect
     style="opacity:0.915;fill:#f13a20;fill-opacity:1;stroke:#000000;stroke-width:0;stroke-opacity:1"
     id="rect91"
     width="107.56235"
     height="45.945976"
     x="400.86963"
     y="231.05769" />
  <rect
     style="opacity:0.915;fill:#f13a20;fill-opacity:1;stroke:none;stroke-width:0"
     id="rect93"
     width="40.486046"
     height="43.366913"
     x="467.94592"
     y="277.00366" />
  <rect
     style="opacity:0.915;fill:#f13a20;fill-opacity:1;stroke:#000000;stroke-width:0"
     id="rect93-3"
     width="40.486046"
     height="86.149841"
     x="400.43198"
     y="321.53763" />
  <rect
     style="opacity:0.915;fill:#f13a20;fill-opacity:1;stroke:#000000;stroke-width:0"
     id="rect91-6"
     width="68.767296"
     height="45.945976"
     x="440.91803"
     y="361.74149" />
  <rect
     style="opacity:0.915;fill:#f13a20;fill-opacity:1;stroke:#000000;stroke-width:0;stroke-opacity:1"
     id="rect91-7"
     width="43.853767"
     height="175.71941"
     x="539.42957"
     y="230.91368" />
</svg>
