<?xml version="1.0" encoding="UTF-8" standalone="no"?>
<svg
   xmlns:dc="http://purl.org/dc/elements/1.1/"
   xmlns:cc="http://creativecommons.org/ns#"
   xmlns:rdf="http://www.w3.org/1999/02/22-rdf-syntax-ns#"
   xmlns:svg="http://www.w3.org/2000/svg"
   xmlns="http://www.w3.org/2000/svg"
   xmlns:sodipodi="http://sodipodi.sourceforge.net/DTD/sodipodi-0.dtd"
   xmlns:inkscape="http://www.inkscape.org/namespaces/inkscape"
   id="b944483d-564a-4430-a20f-83b53d0ebb22"
   data-name="Layer 1"
   width="972.0042"
   height="639.89567"
   viewBox="0 0 972.0042 639.89567"
   version="1.1"
   sodipodi:docname="contact_form.svg"
   inkscape:version="1.0.1 (3bc2e813f5, 2020-09-07)"
   inkscape:export-filename="/home/sofiane/Documents/passwork/landing/images/contact.png"
   inkscape:export-xdpi="96"
   inkscape:export-ydpi="96">
  <metadata
     id="metadata57">
    <rdf:RDF>
      <cc:Work
         rdf:about="">
        <dc:format>image/svg+xml</dc:format>
        <dc:type
           rdf:resource="http://purl.org/dc/dcmitype/StillImage" />
        <dc:title />
      </cc:Work>
    </rdf:RDF>
  </metadata>
  <defs
     id="defs55" />
  <sodipodi:namedview
     pagecolor="#ffffff"
     bordercolor="#666666"
     borderopacity="1"
     objecttolerance="10"
     gridtolerance="10"
     guidetolerance="10"
     inkscape:pageopacity="0"
     inkscape:pageshadow="2"
     inkscape:window-width="1920"
     inkscape:window-height="1043"
     id="namedview53"
     showgrid="false"
     inkscape:zoom="0.57431235"
     inkscape:cx="733.4128"
     inkscape:cy="176.42899"
     inkscape:window-x="0"
     inkscape:window-y="0"
     inkscape:window-maximized="1"
     inkscape:current-layer="b944483d-564a-4430-a20f-83b53d0ebb22"
     inkscape:document-rotation="0" />
  <ellipse
     cx="322.51636"
     cy="589.24567"
     rx="122.63596"
     ry="10"
     fill="#e6e6e6"
     id="ellipse10"
     style="stroke-width:0.703917" />
  <path
     d="m 392.32125,276.03507 a 10.52585,10.52585 0 0 0 -0.2393,1.64013 l -42.95745,24.782 -10.44141,-6.01094 -11.13117,14.57228 22.33714,15.92056 49.00792,-38.66268 a 10.4958,10.4958 0 1 0 -6.57573,-12.24133 z"
     fill="#ffb8b8"
     id="path12" />
  <path
     d="m 294.48854,291.23933 33.82412,24.10721 15.128,-18.96712 -32.88021,-26.38264 a 13.32413,13.32413 0 0 0 -19.18895,2.659 v 0 a 13.32412,13.32412 0 0 0 3.11704,18.58355 z"
     fill="#3fd2bc"
     id="path14"
     style="fill:#d23f70;fill-opacity:1" />
  <polygon
     points="437.506,561.213 425.519,606.957 437.379,610.064 455.009,565.8 "
     fill="#ffb8b8"
     id="polygon16"
     transform="translate(-200.85191,-40.650049)" />
  <path
     d="m 256.51315,586.41967 -37.27243,-9.76642 3.77339,-14.40071 22.87173,5.99304 a 14.88686,14.88686 0 0 1 10.62731,18.17408 v 0 z"
     fill="#2f2e41"
     id="path18" />
  <polygon
     points="522.627,568.85 530.942,615.401 543.011,613.245 540.439,565.668 "
     fill="#ffb8b8"
     id="polygon20"
     transform="translate(-200.85191,-40.650049)" />
  <path
     d="m 367.43645,579.64425 -37.93033,6.77545 -2.61779,-14.6549 23.27543,-4.15766 a 14.88687,14.88687 0 0 1 17.27269,12.03711 z"
     fill="#2f2e41"
     id="path22"
     inkscape:export-xdpi="96"
     inkscape:export-ydpi="96" />
  <path
     d="m 306.32548,224.8584 c 2.97389,0.7239 5.39344,3.75427 6.84643,7.26492 a 50.67542,50.67542 0 0 1 2.70406,11.41446 c 1.14169,7.25673 2.2381,15.11271 -0.12326,21.83369 -2.76764,7.87732 -10.14212,12.00315 -16.53891,10.06427 -6.39679,-1.93888 -11.48427,-9.21664 -13.22252,-17.59408 a 42.6097,42.6097 0 0 1 2.92436,-25.08432 c 1.81714,-4.13706 4.32184,-7.95379 7.6504,-9.82035 a 7.54966,7.54966 0 0 1 10.06835,2.098"
     fill="#2f2e41"
     id="path24" />
  <path
     d="m 323.15229,356.24561 22.97681,205.79407 -18.97681,7.20593 -35,-138 -48.7282,126.17811 -20.7718,1.154 c 0,0 28.5,-196.3321 49.62152,-200.79406 z"
     fill="#2f2e41"
     id="path26" />
  <circle
     cx="303.85306"
     cy="226.56058"
     r="24.561029"
     fill="#ffb8b8"
     id="circle28" />
  <path
     d="m 314.39448,261.42561 -26.54182,-3.462 c 0,0 -17.30983,20.7718 -16.15584,56.54546 1.15399,35.77366 -2.885,46.73654 -2.885,46.73654 l 55.34045,1 c -7.99998,-11 25.46145,-74.17712 -9.75779,-100.82 z"
     fill="#3fd2bc"
     id="path30"
     style="fill:#d23f70;fill-opacity:1" />
  <path
     d="m 328.65229,367.24561 a 10.52608,10.52608 0 0 0 -1.65137,0.1424 l -33.95508,-36.14612 3.46192,-11.53992 -16.73291,-7.50091 -10.38623,25.38772 48.852,38.85943 a 10.49579,10.49579 0 1 0 10.41162,-9.20264 z"
     fill="#ffb8b8"
     id="path32" />
  <path
     d="m 291.46263,275.48866 -15.72685,38.44341 21.92579,10.3859 18.158,-38.04525 a 13.32414,13.32414 0 0 0 -6.97982,-18.0712 v 0 a 13.32412,13.32412 0 0 0 -17.37712,7.28714 z"
     fill="#3fd2bc"
     id="path34"
     style="fill:#d23f70;fill-opacity:1" />
  <path
     d="m 297.42836,248.88978 c 3.84844,-2.22012 4.259,-7.57567 3.736,-11.98768 -0.523,-4.41201 -1.39666,-9.33053 1.19673,-12.938 3.09522,-4.30552 9.31374,-4.39124 14.61451,-4.53178 5.30077,-0.14054 11.75595,-1.69268 13.1294,-6.81435 0.90752,-3.3842 -1.03415,-7.01583 -3.82049,-9.14014 -2.78634,-2.12431 -6.2722,-3.0635 -9.66037,-3.95608 -7.57934,-1.99671 -15.4055,-4.01025 -23.16624,-2.91282 A 29.5352,29.5352 0 0 0 268.29525,229.589 c 1.25611,9.851 3.07792,14.15262 1.88212,18.49613 -2.22732,8.09027 -11.831,13.2875 -12.02224,21.6766 -0.1496,6.562 5.64658,11.62417 11.30167,14.95607 4.48561,2.64287 9.32664,4.88544 14.496,5.50415 5.16936,0.61871 10.73488,-0.56586 14.58577,-4.0696 4.96672,-4.519 6.1953,-12.06877 4.77109,-18.63088 -1.42421,-6.56211 -5.07749,-12.38957 -8.69149,-18.04895"
     fill="#2f2e41"
     id="path36" />
  <rect
     x="751.33179"
     y="552.33026"
     width="45.558041"
     height="45.558041"
     fill="#cfcce0"
     id="rect30" />
  <path
     d="m 790.89537,591.89386 h -47.9558 v -47.95583 h 47.9558 z m -45.558,-2.39779 h 43.1602 v -43.16025 h -43.1602 z"
     fill="#3f3d56"
     id="path32-3" />
  <path
     d="m 733.77597,348.24382 c 16.9036,0.3626 30.3502,12.61229 30.3502,12.61229 0,0 -13.9595,11.6618 -30.8631,11.29919 -16.9036,-0.36261 -30.3503,-12.61229 -30.3503,-12.61229 0,0 13.9596,-11.6618 30.8632,-11.29919 z"
     fill="#3fd2bc"
     id="path42"
     style="fill:#1a7164;fill-opacity:1" />
  <path
     d="m 648.79327,290.543 c 15.2717,7.2553 32.7834,2.33538 32.7834,2.33538 0,0 -7.2486,-16.68308 -22.5203,-23.93838 -15.2716,-7.2553 -32.7834,-2.33537 -32.7834,-2.33537 0,0 7.2486,16.68308 22.5203,23.93837 z"
     fill="#3fd2bc"
     id="path44"
     style="fill:#218b7b;fill-opacity:1" />
  <path
     d="m 650.34567,283.33309 c 16.8373,-1.53875 31.575,9.12272 31.575,9.12272 0,0 -12.561,13.15627 -29.3984,14.695 -16.8373,1.53873 -31.575,-9.12272 -31.575,-9.12272 0,0 12.561,-13.15625 29.3984,-14.695 z"
     fill="#3f3d56"
     id="path46" />
  <path
     d="m 712.06607,286.2482 c -1.6139,16.8303 8.9817,31.61542 8.9817,31.61542 0,0 13.2122,-12.5022 14.826,-29.3325 1.6139,-16.8303 -8.9817,-31.61543 -8.9817,-31.61543 0,0 -13.2122,12.50225 -14.826,29.33251 z"
     fill="#3f3d56"
     id="path48" />
  <path
     d="m 791.36157,389.46794 c -8.8312,14.41779 -5.7929,32.352 -5.7929,32.352 0,0 17.35673,-5.44166 26.18803,-19.85944 8.8313,-14.41778 5.7929,-32.352 5.7929,-32.352 0,0 -17.3567,5.44167 -26.18803,19.85944 z"
     fill="#3f3d56"
     id="path50" />
  <path
     d="m 765.74097,546.22628 1.287,-0.8699 a 40.32083,40.32083 0 0 1 -7.1162,-22.36062 c 0.036,-11.69395 5.7799,-22.51 11.3348,-32.97005 1.0311,-1.94153 2.0587,-3.877 3.0473,-5.81095 a 126.84805,126.84805 0 0 0 9.8662,-24.7682 c 8.61633,-32.01976 0.1331,-69.797 -22.692,-101.05455 -18.1071,-24.79626 -45.0994,-46.47925 -82.5183,-66.2882 l -0.7265,1.37273 c 37.2058,19.69594 64.0251,41.2299 81.9903,65.83163 22.5507,30.881 30.9417,68.16527 22.4464,99.73491 a 125.3412,125.3412 0 0 1 -9.7486,24.46484 c -0.9856,1.92675 -2.0095,3.85463 -3.0367,5.78934 -5.6434,10.62686 -11.479,21.61548 -11.5161,33.69395 a 41.88823,41.88823 0 0 0 7.3824,23.23507 z"
     fill="#3f3d56"
     id="path52" />
  <g
     id="g965"
     transform="matrix(0.6459029,0,0,0.68487583,123.90271,-171.41106)">
    <path
       id="Path_80"
       data-name="Path 80"
       d="m 793.96988,294.71214 h -240.615 a 51.15,51.15 0 0 0 -49.9,39.9 l -121.576,539.26801 a 41.34,41.34 0 0 0 38.294,50.382 l 247.355,12.187 a 54.615,54.615 0 0 0 56.43,-44.828 l 68.97,-381.267 5.131,1.466 13.2,-72.265 -5.281,-1.32 19.251,-106.42601 a 31.493,31.493 0 0 0 -31.25,-37.1 z"
       fill="#3f3d56" />
    <path
       id="Path_81"
       data-name="Path 81"
       d="m 585.02788,306.33714 h -28.084 a 35.349,35.349 0 0 0 -34.536,27.813 l -116.7,534.86801 a 21.9,21.9 0 0 0 19.969,26.524 l 246.551,16.16 a 28.367,28.367 0 0 0 29.773,-23.277 l 99.58,-552.83801 a 24.846,24.846 0 0 0 -24.452,-29.25 h -26.643 a 11.726,11.726 0 0 0 -11.323,8.677 v 0 a 10.352,10.352 0 0 1 -10,7.661 h -126.488 a 17.7,17.7 0 0 1 -17.647,-16.338 z"
       fill="#ffffff" />
    <path
       id="Path_93"
       data-name="Path 93"
       d="m 721.32188,680.25515 a 2,2 0 0 0 2.036,-1.638 l 54.523,-300.91701 a 2.021,2.021 0 0 0 -0.417,-1.632 1.962,1.962 0 0 0 -1.5,-0.729 l -248.059,-2.93 h -0.023 a 1.988,1.988 0 0 0 -1.925,1.562 l -64.276,291.15001 a 2.021,2.021 0 0 0 0.356,1.648 1.964,1.964 0 0 0 1.473,0.785 z"
       fill="#e6e6e6" />
    <path
       id="Path_94"
       data-name="Path 94"
       d="m 506.05688,699.71115 a 1,1 0 0 0 -0.973,0.773 l -2.323,9.956 a 1,1 0 0 0 0.9,1.225 l 131.23,9.327 a 1.009,1.009 0 0 0 1.053,-0.807 l 2.234,-11.519 a 1,1 0 0 0 -0.922,-1.188 l -131.138,-7.765 z"
       fill="#e6e6e6" />
    <path
       id="Path_95"
       data-name="Path 95"
       d="m 665.49388,757.97315 a 1,1 0 0 0 1.051,-0.758 l 2.844,-11.543 a 1,1 0 0 0 -0.9,-1.237 l -167.589,-11.721 a 0.989,0.989 0 0 0 -1.029,0.713 l -2.955,9.975 a 1,1 0 0 0 0.878,1.28 z"
       fill="#e6e6e6" />
    <path
       id="Path_96"
       data-name="Path 96"
       d="m 656.49388,794.97315 a 1,1 0 0 0 1.051,-0.758 l 2.844,-11.543 a 1,1 0 0 0 -0.9,-1.237 l -167.589,-11.721 a 0.989,0.989 0 0 0 -1.029,0.713 l -2.955,9.975 a 1,1 0 0 0 0.878,1.28 z"
       fill="#e6e6e6" />
    <path
       id="Path_97"
       data-name="Path 97"
       d="m 579.30888,858.22515 a 0.989,0.989 0 0 0 1.064,-0.754 l 6.013,-24.051 a 1,1 0 0 0 -0.886,-1.24 l -102.916,-8.656 a 1.018,1.018 0 0 0 -1.06,0.779 l -5.129,23.083 a 1,1 0 0 0 0.883,1.213 z"
       fill="#3fd2bc" />
  </g>
  <g
     id="g982"
     transform="matrix(0.56894538,-0.16575061,0.14202524,0.54811313,-32.454991,314.59829)">
    <polygon
       points="628.109,349.709 662.018,255.296 780.281,226.293 851.954,323.514 818.044,417.926 "
       fill="#2f2e41"
       id="polygon56"
       transform="translate(187.35403,-184.78514)" />
    <path
       d="M 982.38906,214.41932 840.44995,160.31291 c 36.8477,-49.35662 53.32538,-84.172785 53.33749,-138.959005 l 141.93906,54.1064 c -32.9752,46.841055 -46.76505,82.053425 -53.33744,138.959015 z"
       fill="#f2f2f2"
       id="path58" />
    <rect
       x="879.21472"
       y="-276.46988"
       width="78.696213"
       height="3.66029"
       transform="rotate(20.86657)"
       fill="#3f3d56"
       id="rect60" />
    <rect
       x="879.21472"
       y="-261.82874"
       width="78.696213"
       height="3.66029"
       transform="rotate(20.86657)"
       fill="#3f3d56"
       id="rect62" />
    <rect
       x="879.21472"
       y="-247.18759"
       width="78.696213"
       height="3.66029"
       transform="rotate(20.86657)"
       fill="#3f3d56"
       id="rect64" />
    <rect
       x="879.21472"
       y="-232.54643"
       width="78.696213"
       height="3.66029"
       transform="rotate(20.86657)"
       fill="#3f3d56"
       id="rect66" />
    <rect
       x="879.21478"
       y="-217.90523"
       width="78.696213"
       height="3.66029"
       transform="rotate(20.86657)"
       fill="#3f3d56"
       id="rect68" />
    <rect
       x="879.21478"
       y="-203.26407"
       width="78.696213"
       height="3.66029"
       transform="rotate(20.86657)"
       fill="#3f3d56"
       id="rect70" />
    <rect
       x="879.21472"
       y="-188.62294"
       width="78.696213"
       height="3.66029"
       transform="rotate(20.86657)"
       fill="#3f3d56"
       id="rect72" />
    <rect
       x="879.21472"
       y="-173.98178"
       width="78.696213"
       height="3.66029"
       transform="rotate(20.86657)"
       fill="#3f3d56"
       id="rect74" />
    <polygon
       points="623.721,361.927 662.018,255.296 742.226,330.502 851.954,323.514 813.656,430.144 "
       fill="#3f3d56"
       id="polygon76"
       transform="translate(187.35403,-184.78514)" />
    <polygon
       points="647.401,298.953 625.001,361.323 717.824,394.662 717.148,396.545 622.442,362.53 645.518,298.277 "
       fill="#3fd2bc"
       id="polygon78"
       transform="translate(187.35403,-184.78514)" />
    <rect
       x="838.5564"
       y="-159.37428"
       width="29.505051"
       height="11.802021"
       transform="rotate(19.756267)"
       fill="#3fd2bc"
       id="rect80"
       style="fill:#18675b;fill-opacity:1;stroke-width:1" />
    <ellipse
       cx="296.85864"
       cy="921.86548"
       rx="9.0296602"
       ry="25"
       transform="rotate(-69.13343)"
       fill="#3fd2bc"
       id="ellipse88"
       style="fill:#1f8273;fill-opacity:1" />
    <path
       d="m 1010.919,-82.232255 a 38,38 0 0 0 -47.56927,25.00326 c -6.23144,20.04035 10.751,93.40458 10.751,93.40458 0,0 55.59007,-50.7982 61.82147,-70.83855 a 38,38 0 0 0 -25.0032,-47.56929 z m -16.62755,53.47451 a 18,18 0 1 1 22.53285,-11.84365 18,18 0 0 1 -22.53285,11.84365 z"
       fill="#3fd2bc"
       id="path90"
       style="fill:#239683;fill-opacity:1" />
  </g>
</svg>
