<?xml version="1.0" encoding="UTF-8" standalone="no"?>
<svg
   xmlns:dc="http://purl.org/dc/elements/1.1/"
   xmlns:cc="http://creativecommons.org/ns#"
   xmlns:rdf="http://www.w3.org/1999/02/22-rdf-syntax-ns#"
   xmlns:svg="http://www.w3.org/2000/svg"
   xmlns="http://www.w3.org/2000/svg"
   xmlns:sodipodi="http://sodipodi.sourceforge.net/DTD/sodipodi-0.dtd"
   xmlns:inkscape="http://www.inkscape.org/namespaces/inkscape"
   id="e5a14d39-c01f-40f9-a6ab-d21710ce4f03"
   data-name="Layer 1"
   width="959.44245"
   height="652.97316"
   viewBox="0 0 959.44245 652.97316"
   version="1.1"
   sodipodi:docname="collaborate.svg"
   inkscape:version="1.0.1 (3bc2e813f5, 2020-09-07)"
   inkscape:export-filename="/home/sofiane/Documents/passwork/landing/images/collaborate.png"
   inkscape:export-xdpi="96"
   inkscape:export-ydpi="96">
  <metadata
     id="metadata131">
    <rdf:RDF>
      <cc:Work
         rdf:about="">
        <dc:format>image/svg+xml</dc:format>
        <dc:type
           rdf:resource="http://purl.org/dc/dcmitype/StillImage" />
      </cc:Work>
    </rdf:RDF>
  </metadata>
  <defs
     id="defs129" />
  <sodipodi:namedview
     pagecolor="#ffffff"
     bordercolor="#666666"
     borderopacity="1"
     objecttolerance="10"
     gridtolerance="10"
     guidetolerance="10"
     inkscape:pageopacity="0"
     inkscape:pageshadow="2"
     inkscape:window-width="1920"
     inkscape:window-height="1043"
     id="namedview127"
     showgrid="false"
     inkscape:zoom="1.1256206"
     inkscape:cx="578.34299"
     inkscape:cy="310.74796"
     inkscape:window-x="0"
     inkscape:window-y="0"
     inkscape:window-maximized="1"
     inkscape:current-layer="layer11"
     inkscape:document-rotation="0" />
  <path
     d="M908.26072,123.51342h-607a8.72766,8.72766,0,0,0-8.71972,8.72v411.32a8.72766,8.72766,0,0,0,8.71972,8.72h607a8.71242,8.71242,0,0,0,6.63037-3.06,2.04424,2.04424,0,0,0,.19-.24,8.16648,8.16648,0,0,0,1.25-2.11,8.50725,8.50725,0,0,0,.65966-3.31V132.23345A8.72953,8.72953,0,0,0,908.26072,123.51342Zm6.24024,420.04a6.17524,6.17524,0,0,1-1.03028,3.42,6.44578,6.44578,0,0,1-2.35986,2.12,6.1843,6.1843,0,0,1-2.8501.69h-607a6.23758,6.23758,0,0,1-6.23-6.23V132.23345a6.23758,6.23758,0,0,1,6.23-6.23h607a6.23945,6.23945,0,0,1,6.24024,6.23Z"
     transform="translate(-120.27878 -123.51342)"
     fill="#3f3d56"
     id="path4" />
  <rect
     x="173.50487"
     y="34.94921"
     width="621.95676"
     height="2.49281"
     fill="#3f3d56"
     id="rect6" />
  <circle
     cx="194.69377"
     cy="18.6961"
     r="7.47844"
     fill="#e6e6e6"
     id="circle8" />
  <circle
     cx="216.19428"
     cy="18.6961"
     r="7.47844"
     fill="#e6e6e6"
     id="circle10" />
  <circle
     cx="237.69479"
     cy="18.6961"
     r="7.47844"
     fill="#e6e6e6"
     id="circle12" />
  <path
     d="M639.05266,201.01154h-220.134a13.67732,13.67732,0,0,0-13.65795,13.658V492.64894a13.67732,13.67732,0,0,0,13.65795,13.658h220.134a13.67731,13.67731,0,0,0,13.658-13.658V214.66949A13.67731,13.67731,0,0,0,639.05266,201.01154Zm12.05114,291.6374a12.06583,12.06583,0,0,1-12.05114,12.05114h-220.134a12.06582,12.06582,0,0,1-12.05113-12.05114V214.66949a12.06582,12.06582,0,0,1,12.05113-12.05114h220.134a12.06583,12.06583,0,0,1,12.05114,12.05114Z"
     transform="translate(-120.27878 -123.51342)"
     fill="#e6e6e6"
     id="path14" />
  <path
     d="M593.25836,347.47281H464.71294a13.27124,13.27124,0,0,1-13.25624-13.25625V262.23145a13.27124,13.27124,0,0,1,13.25624-13.25625H593.25836a13.27124,13.27124,0,0,1,13.25624,13.25625v71.98511A13.27124,13.27124,0,0,1,593.25836,347.47281Z"
     transform="translate(-120.27878 -123.51342)"
     fill="#e6e6e6"
     id="path30" />
  <path
     d="M1066.96289,665.6352h-48.00976c0,1.38-49.48,2.5-49.48,2.5a12.86,12.86,0,0,0-2.10987,2,12.41033,12.41033,0,0,0-2.90039,8v2a12.5046,12.5046,0,0,0,12.5,12.5h90a12.51087,12.51087,0,0,0,12.5-12.5v-2A12.51734,12.51734,0,0,0,1066.96289,665.6352Z"
     transform="translate(-120.27878 -123.51342)"
     fill="#e6e6e6"
     id="path54" />
  <rect
     x="895.67933"
     y="568.62519"
     width="13"
     height="84"
     fill="#e6e6e6"
     id="rect56" />
  <path
     d="M1065.9581,775.68192c0,1.40463-19.69947.54331-44,.54331s-44,.86132-44-.54331,19.69947-12.54331,44-12.54331S1065.9581,774.27729,1065.9581,775.68192Z"
     transform="translate(-120.27878 -123.51342)"
     fill="#e6e6e6"
     id="path58" />
  <polygon
     points="836.67 641.12 824.41 641.12 818.577 593.832 836.672 593.832 836.67 641.12"
     fill="#ffb8b8"
     id="polygon60" />
  <path
     d="M815.65268,637.61659h23.64384a0,0,0,0,1,0,0v14.88687a0,0,0,0,1,0,0H800.76581a0,0,0,0,1,0,0v0A14.88688,14.88688,0,0,1,815.65268,637.61659Z"
     fill="#2f2e41"
     id="path62" />
  <polygon
     points="817.532 634.278 805.835 630.607 814.427 583.742 831.691 589.159 817.532 634.278"
     fill="#ffb8b8"
     id="polygon64" />
  <path
     d="M916.37743,749.12563h23.64389a0,0,0,0,1,0,0v14.88687a0,0,0,0,1,0,0H901.49058a0,0,0,0,1,0,0v0A14.88685,14.88685,0,0,1,916.37743,749.12563Z"
     transform="translate(148.49355 -364.49417) rotate(17.42262)"
     fill="#2f2e41"
     id="path66" />
  <path
     d="M1034.12925,657.438a37.8711,37.8711,0,0,0-1.52-7.02l-2.29-2.88-5.96-7.48-.25976.01c-.44043.02-2.27051.12-5.1001.34h-.03028c-1.75.14-3.89013.32-6.31982.55-.64014.07-1.31006.13-2,.2v10.44h12.5a2.50441,2.50441,0,0,1,2.48,2.18c.00977.11.02.21.02.32a2.501,2.501,0,0,1-2.5,2.5h-72.6001a28.40734,28.40734,0,0,0-2.66015,2,14.8816,14.8816,0,0,0-5.25,7.86c-4.23975,18.64-11.96973,53.4-14.25,63.61005a4.53814,4.53814,0,0,0,1.35009,4.28,4.436,4.436,0,0,0,1.47022.91l9.02,3.37994a4.79245,4.79245,0,0,0,1.1499.27c.04981,0,.08984.01.14014.01a2.6135,2.6135,0,0,0,.27978.01,4.53212,4.53212,0,0,0,4.21-2.9l7.12012-18.68,10.97022-28.8,4.33984-11.39c5.02978,1.18,47.23,10.52,61.35986-4.53a16.06766,16.06766,0,0,0,3.24024-5.11A20.80167,20.80167,0,0,0,1034.12925,657.438Z"
     transform="translate(-120.27878 -123.51342)"
     fill="#2f2e41"
     id="path68" />
  <path
     d="M1046.369,660.158c-.21973-.89-.46973-1.81-.75977-2.74l-8.25-10.36-.25976.01c-.52051.03-2.99024.16-6.78028.47-4.2998.36-10.31006.94-17.06006,1.85-.1997.02-.40966.05005-.60986.08-.66016.09-1.33008.18-2,.28v1.85h12.5a2.50441,2.50441,0,0,1,2.48,2.18c.00977.11.02.21.02.32a2.501,2.501,0,0,1-2.5,2.5H978.96909c-1.92968.63-3.79,1.29-5.56982,2-9.33984,3.7-16.33008,8.55-17.76025,14.86-.48,2.12-1.00977,4.45-1.56983,6.93-2.08008,9.22-4.60986,20.51-6.8999,30.77v.01c-.47021,2.12-.93994,4.18-1.39014,6.18-1.91015,8.6-3.52978,15.89-4.39013,19.72-.02.11-.03955.21-.06006.31994v.02a4.66711,4.66711,0,0,0,.28027,2.29l.00977.01v.01a4.42985,4.42985,0,0,0,1.30029,1.79,4.59324,4.59324,0,0,0,1.29.75l9.02,3.37994a4.58027,4.58027,0,0,0,1.56982.29,4.4349,4.4349,0,0,0,2.14991-.55,4.501,4.501,0,0,0,2.06005-2.35l19.41993-50.96,3.01025-7.91c5.02978,1.18,47.23,10.51,61.35986-4.53a16.891,16.891,0,0,0,4.48-11.07A29.68617,29.68617,0,0,0,1046.369,660.158Z"
     transform="translate(-120.27878 -123.51342)"
     fill="#2f2e41"
     id="path70" />
  <path
     d="M1045.25913,571.938c-.15966-.19-.33007-.38-.50976-.56a24.47214,24.47214,0,0,0-20.97022-7.39,79.36176,79.36176,0,0,0-9.91015,1.95,24.98109,24.98109,0,0,0-11.17969,6.27,24.4142,24.4142,0,0,0-7.41016,18.2c.04,1.37.04981,2.77.03028,4.19,0,.66-.01026,1.33-.02,2h9.85986a5.31954,5.31954,0,0,1,1.27.15,5.511,5.511,0,0,1,4.23,5.35v46.52c.66992.19,1.33984.38,2,.58.21.06995.41016.13.60986.18994.23.07.46.14.68018.21q3.04467.945,5.94971,2h3.26025a2.50441,2.50441,0,0,1,2.48,2.18c.68018.27,1.33984.54,1.98975.81,2.31006.96,4.5,1.92,6.51025,2.85,2.71,1.24,5.12012,2.42,7.14014,3.44995a4.58706,4.58706,0,0,0,2.0498.5,4.40408,4.40408,0,0,0,2.6001-.86,5.53111,5.53111,0,0,0,.44971-.37,4.50453,4.50453,0,0,0,1.37011-3.98,128.087,128.087,0,0,1-.8999-23.7c.27979-6.65.87988-13.47,1.66016-20.06.41992-3.57.88965-7.07,1.37988-10.44.47022-3.22.97022-6.31,1.46-9.23A24.607,24.607,0,0,0,1045.25913,571.938Z"
     transform="translate(-120.27878 -123.51342)"
     fill="#3fd2bc"
     id="path72" />
  <path
     d="M1004.26939,572.758a11.858,11.858,0,0,0-1.58008-.55,11.49857,11.49857,0,0,0-13.54,6.53l-6.87012,15.86-.85986,2h23.73a5.31954,5.31954,0,0,1,1.27.15l.7998-1.85,3.04-7.02A11.5115,11.5115,0,0,0,1004.26939,572.758Z"
     transform="translate(-120.27878 -123.51342)"
     fill="#3fd2bc"
     id="path74" />
  <path
     d="M1049.87925,601.978l-14.02.38-1.02,9.85-.23,2.28-21.96,9.86-2,.9v17.53l2-.57,6.31982-1.8h.03028l27.83984-7.93.31983-.09a10.879,10.879,0,0,0,7.86035-10.35l.06982-11.63.06006-8.57Z"
     transform="translate(-120.27878 -123.51342)"
     fill="#ffb8b8"
     id="path78" />
  <path
     d="M1054.43931,582.498a11.50161,11.50161,0,0,0-22.96,1.41l1.52978,24.96a4.48641,4.48641,0,0,0,1.83008,3.34,4.43546,4.43546,0,0,0,2.93994.87l10.72022-.66,3.25-.2a4.385,4.385,0,0,0,3.1001-1.51,3.13669,3.13669,0,0,0,.23974-.3,4.46883,4.46883,0,0,0,.87988-2.96Z"
     transform="translate(-120.27878 -123.51342)"
     fill="#3fd2bc"
     id="path80" />
  <path
     d="M1013.93931,649.598h-1.29v-.13c-.66016.09-1.33008.18-2,.28v1.85h9.23975Q1016.97911,650.54793,1013.93931,649.598Zm0,0h-1.29v-.13c-.66016.09-1.33008.18-2,.28v1.85h9.23975Q1016.97911,650.54793,1013.93931,649.598Zm9.21,0h-10.5v-47.5a7.51079,7.51079,0,0,0-5.43018-7.2,7.0508,7.0508,0,0,0-2.06982-.3h-89a7.50906,7.50906,0,0,0-7.5,7.5v49a7.50263,7.50263,0,0,0,7.5,7.5h107a4.50457,4.50457,0,0,0,4.46973-4.01,3.90327,3.90327,0,0,0,.03027-.49A4.50681,4.50681,0,0,0,1023.14927,649.598Zm2.5,4.5a2.501,2.501,0,0,1-2.5,2.5h-107a5.50324,5.50324,0,0,1-5.5-5.5v-49a5.50329,5.50329,0,0,1,5.5-5.5h89a5.31954,5.31954,0,0,1,1.27.15,5.511,5.511,0,0,1,4.23,5.35v49.5h12.5a2.50441,2.50441,0,0,1,2.48,2.18C1025.639,653.88793,1025.64927,653.988,1025.64927,654.098Zm-11.71-4.5h-1.29v-.13c-.66016.09-1.33008.18-2,.28v1.85h9.23975Q1016.97911,650.54793,1013.93931,649.598Z"
     transform="translate(-120.27878 -123.51342)"
     fill="#3f3d56"
     id="path82" />
  <circle
     cx="840.36741"
     cy="503.08597"
     r="6"
     fill="#3fd2bc"
     id="circle84" />
  <path
     d="M120.27878,677.1352v2a12.51087,12.51087,0,0,0,12.5,12.5h90a12.5046,12.5046,0,0,0,12.5-12.5v-2a12.41033,12.41033,0,0,0-2.90039-8,12.86,12.86,0,0,0-2.10987-2s-49.48-1.12-49.48-2.5H132.77878A12.51734,12.51734,0,0,0,120.27878,677.1352Z"
     transform="translate(-120.27878 -123.51342)"
     fill="#e6e6e6"
     id="path86" />
  <rect
     x="170.78357"
     y="691.13861"
     width="13"
     height="84"
     transform="translate(234.28836 1342.76381) rotate(-180)"
     fill="#e6e6e6"
     id="rect88" />
  <path
     d="M133.78357,774.68192c0,1.40463,19.69947.54331,44,.54331s44,.86132,44-.54331-19.69947-12.54331-44-12.54331S133.78357,773.27729,133.78357,774.68192Z"
     transform="translate(-120.27878 -123.51342)"
     fill="#e6e6e6"
     id="path90" />
  <polygon
     points="123.1 640.882 135.36 640.881 141.192 593.593 123.098 593.594 123.1 640.882"
     fill="#a0616a"
     id="polygon92" />
  <path
     d="M240.75207,760.8917h38.53072a0,0,0,0,1,0,0v14.88687a0,0,0,0,1,0,0H255.63895a14.88688,14.88688,0,0,1-14.88688-14.88688v0A0,0,0,0,1,240.75207,760.8917Z"
     transform="translate(399.79115 1413.14497) rotate(179.99738)"
     fill="#2f2e41"
     id="path94" />
  <polygon
     points="142.238 634.039 153.935 630.368 145.343 583.503 128.079 588.921 142.238 634.039"
     fill="#a0616a"
     id="polygon96" />
  <path
     d="M260.30606,748.88732h38.53073a0,0,0,0,1,0,0v14.88687a0,0,0,0,1,0,0H275.19292a14.88686,14.88686,0,0,1-14.88686-14.88686v0A0,0,0,0,1,260.30606,748.88732Z"
     transform="translate(652.49663 1270.7407) rotate(162.57738)"
     fill="#2f2e41"
     id="path98" />
  <path
     d="M271.93652,729.83154c-2.27-10.21-10.01026-44.97-14.25-63.61a14.6807,14.6807,0,0,0-4.98-7.62,27.11245,27.11245,0,0,0-2.58008-2H183.82617a2.501,2.501,0,0,1-2.5-2.5c0-.11.01025-.21.02-.32a2.50435,2.50435,0,0,1,2.48-2.18h12.5v-9.93c-.67969-.08-1.33985-.16-2-.23-5.23-.62-9.73-1.02-12.94971-1.27-2.85986-.22-4.71-.32-5.1499-.34l-.26026-.02-5.96,7.49-2.29,2.88a37.60813,37.60813,0,0,0-1.52,7.01c-.71,6.28.74024,11.38,4.33008,15.2,14.12989,15.04,56.33008,5.71,61.35987,4.53l22.43017,58.87a4.5049,4.5049,0,0,0,4.21,2.89c.14014,0,.27979-.01.41992-.02a4.55986,4.55986,0,0,0,1.14991-.26l9.02-3.38A4.53361,4.53361,0,0,0,271.93652,729.83154Z"
     transform="translate(-120.27878 -123.51342)"
     fill="#2f2e41"
     id="path100" />
  <path
     d="M258.93652,736.83154c-2.27-10.21-10.01026-44.97-14.25-63.61-1.41016-6.18-8.13037-10.95-17.16992-14.62-1.73047-.71-3.5503-1.37-5.44043-2h-38.25a2.501,2.501,0,0,1-2.5-2.5c0-.11.01025-.21.02-.32a2.50435,2.50435,0,0,1,2.48-2.18h12.5v-1.06c-1.38965-.24-2.77979-.46-4.13965-.67q-.93018-.13494-1.86035-.27-1.66481-.24-3.27-.45c-6.75-.91-12.75-1.49-17.04981-1.85-3.79-.31-6.26025-.44-6.77978-.47l-.26026-.02-8.25,10.37c-.29.93-.54,1.85-.75976,2.74-2,8.28-.80029,14.81,3.56982,19.47,14.12989,15.04,56.33008,5.71,61.35987,4.53l22.43017,58.87a4.51754,4.51754,0,0,0,5.77979,2.61l9.02-3.38a4.50492,4.50492,0,0,0,2.83007-3.36A4.19406,4.19406,0,0,0,258.93652,736.83154Z"
     transform="translate(-120.27878 -123.51342)"
     fill="#2f2e41"
     id="path102" />
  <path
     d="M246.32617,620.60156a5.99849,5.99849,0,0,0-5.46973,3.54l9.1001-2.32A5.92365,5.92365,0,0,0,246.32617,620.60156Z"
     transform="translate(-120.27878 -123.51342)"
     fill="#a0616a"
     id="path104" />
  <path
     d="M205.05615,589.52155a24.43336,24.43336,0,0,0-7.41992-17.56,24.928,24.928,0,0,0-11.16993-6.26,81.45062,81.45062,0,0,0-9.91992-1.96,24.51849,24.51849,0,0,0-20.97021,7.4c-.17969.18-.34961.37-.50977.56a24.59787,24.59787,0,0,0-6.08008,20.81c.49024,2.92.99024,6.01,1.46,9.23.49024,3.37.96,6.87,1.37989,10.44.78027,6.59,1.38037,13.41,1.66015,20.05a127.31406,127.31406,0,0,1-.8999,23.71,4.50448,4.50448,0,0,0,1.37012,3.98,5.46081,5.46081,0,0,0,.44971.37,4.36643,4.36643,0,0,0,4.6499.35c2.02-1.03,4.43017-2.21,7.14013-3.45,4.08985-1.87,8.85987-3.89,14-5.75,1.77-.64,3.58985-1.26,5.43018-1.84.46973-.15.94971-.3,1.42969-.45,2.39013-.73,4.82031-1.41,7.27-1.99.66992-.16,1.33008-.31,2-.45v-44.61a5.51105,5.51105,0,0,1,4.23-5.35,5.32253,5.32253,0,0,1,1.27-.15h3.22021c-.02-.67-.02978-1.34-.02978-2-.02051-1.5-.01026-2.98.02978-4.43C205.05615,589.95154,205.05615,589.73151,205.05615,589.52155Z"
     transform="translate(-120.27878 -123.51342)"
     fill="#ccc"
     id="path106" />
  <path
     d="M218.14648,594.60156l-6.97022-16.1a11.51493,11.51493,0,0,0-13.54-6.54,11.86421,11.86421,0,0,0-1.58008.55,11.52277,11.52277,0,0,0-5.98975,15.13l4.92969,11.38,1.33008,3.08a5.51105,5.51105,0,0,1,4.23-5.35,5.32253,5.32253,0,0,1,1.27-.15h17.18017Z"
     transform="translate(-120.27878 -123.51342)"
     fill="#ccc"
     id="path108" />
  <path
     d="M194.32617,627.09155l-28.60987-12.84-.23-2.28-1.02-9.85-14.02-.38-5.27-.14.06006,8.57.06983,11.63a10.86694,10.86694,0,0,0,7.86035,10.34l.31982.09,27.89014,7.94,12.94971,3.69,2,.57v-16.44Z"
     transform="translate(-120.27878 -123.51342)"
     fill="#a0616a"
     id="path114" />
  <path
     d="M158.07617,571.49152a11.48876,11.48876,0,0,0-12.17969,10.77l-1.54,24.95a4.52572,4.52572,0,0,0,.87988,2.96,3.07861,3.07861,0,0,0,.24024.3,4.44962,4.44962,0,0,0,1.33984,1.03,4.39273,4.39273,0,0,0,1.75977.48l3.25.2,10.72021.66a4.51382,4.51382,0,0,0,4.77-4.22l1.52979-24.95A11.506,11.506,0,0,0,158.07617,571.49152Z"
     transform="translate(-120.27878 -123.51342)"
     fill="#ccc"
     id="path116" />
  <path
     d="M194.32617,649.47156v.13h-1.29c-.27979.09-.56983.18-.84961.27q-2.595.825-5.1001,1.73h9.23975v-1.85C195.65625,649.65155,194.98632,649.56152,194.32617,649.47156Zm0,0v.13h-1.29c-.27979.09-.56983.18-.84961.27q-2.595.825-5.1001,1.73h9.23975v-1.85C195.65625,649.65155,194.98632,649.56152,194.32617,649.47156Zm0,0v.13h-1.29c-.27979.09-.56983.18-.84961.27,1.35986.21,2.75.43,4.13965.67v-.79C195.65625,649.65155,194.98632,649.56152,194.32617,649.47156Zm0-2.31v2.44h-1.29c-.27979.09-.56983.18-.84961.27q-2.595.825-5.1001,1.73h9.23975v-4.89C195.65625,646.85156,194.99609,647.00153,194.32617,647.16156Zm0,0v2.44h-1.29c-.27979.09-.56983.18-.84961.27q-2.595.825-5.1001,1.73h9.23975v-4.89C195.65625,646.85156,194.99609,647.00153,194.32617,647.16156Zm0,0v2.44h-1.29c-.27979.09-.56983.18-.84961.27q-2.595.825-5.1001,1.73h9.23975v-4.89C195.65625,646.85156,194.99609,647.00153,194.32617,647.16156Zm96.5-52.56h-89a7.04892,7.04892,0,0,0-2.06983.3,7.547,7.547,0,0,0-4.76025,4.12,7.37985,7.37985,0,0,0-.66992,3.08v47.5h-10.5a4.49948,4.49948,0,0,0-4.5,4.5,3.90371,3.90371,0,0,0,.03027.49,4.50494,4.50494,0,0,0,4.46973,4.01h107a7.50268,7.50268,0,0,0,7.5-7.5v-49A7.50907,7.50907,0,0,0,290.82617,594.60156Zm5.5,56.5a5.50328,5.50328,0,0,1-5.5,5.5h-107a2.501,2.501,0,0,1-2.5-2.5c0-.11.01025-.21.02-.32a2.50435,2.50435,0,0,1,2.48-2.18h12.5v-49.5a5.51105,5.51105,0,0,1,4.23-5.35,5.32253,5.32253,0,0,1,1.27-.15h89a5.50324,5.50324,0,0,1,5.5,5.5Zm-102-3.94v2.44h-1.29c-.27979.09-.56983.18-.84961.27q-2.595.825-5.1001,1.73h9.23975v-4.89C195.65625,646.85156,194.99609,647.00153,194.32617,647.16156Zm0,0v2.44h-1.29c-.27979.09-.56983.18-.84961.27q-2.595.825-5.1001,1.73h9.23975v-4.89C195.65625,646.85156,194.99609,647.00153,194.32617,647.16156Zm0,0v2.44h-1.29c-.27979.09-.56983.18-.84961.27q-2.595.825-5.1001,1.73h9.23975v-4.89C195.65625,646.85156,194.99609,647.00153,194.32617,647.16156Zm0,2.31v.13h-1.29c-.27979.09-.56983.18-.84961.27q-2.595.825-5.1001,1.73h9.23975v-1.85C195.65625,649.65155,194.98632,649.56152,194.32617,649.47156Z"
     transform="translate(-120.27878 -123.51342)"
     fill="#3f3d56"
     id="path122" />
  <path
     d="M252.32617,626.60156a6,6,0,0,1-12,0,5.93612,5.93612,0,0,1,.53027-2.46,5.99849,5.99849,0,0,1,5.46973-3.54,5.92365,5.92365,0,0,1,3.63037,1.22A6.00056,6.00056,0,0,1,252.32617,626.60156Z"
     transform="translate(-120.27878 -123.51342)"
     fill="#3fd2bc"
     id="path124" />
  <path
     style="opacity:0.915;fill:#3fd2bc;stroke:#000000;stroke-width:0;fill-opacity:1"
     d="m 175.44462,20.03935 c 0,-13.6295775 0.0745,-14.2161877 1.97447,-15.5469801 1.77776,-1.2451886 32.40257,-1.382974 307.386,-1.382974 304.227,0 305.41842,0.00689 307.18832,1.7767977 1.62396,1.6239549 1.7768,2.9613294 1.7768,15.5469794 V 34.203355 H 484.60742 175.44462 Z m 24.59581,4.236758 c 3.04341,-2.859133 2.8934,-8.829994 -0.28465,-11.329845 -5.30601,-4.1737055 -12.76197,-0.837669 -12.76197,5.710113 0,6.629459 8.20828,10.165115 13.04662,5.619732 z m 21.62375,-0.313629 c 4.60141,-4.89798 1.29531,-12.857494 -5.34056,-12.857494 -5.74833,0 -9.31234,5.36764 -7.10398,10.699084 1.36751,3.30147 3.06926,4.341905 7.15857,4.376681 2.27172,0.01932 3.77751,-0.612591 5.28597,-2.218271 z m 20.34691,1.39084 c 0.87811,-0.469946 2.09645,-2.061304 2.70743,-3.536351 3.41789,-8.251502 -7.05243,-14.7873566 -12.7816,-7.978624 -2.91142,3.460028 -2.91142,6.176035 0,9.636063 1.75618,2.087099 3.03027,2.733359 5.3888,2.733359 1.69885,0 3.80727,-0.384501 4.68537,-0.854447 z"
     id="path956" />
  <path
     style="opacity:0.915;fill:#3fd2bc;fill-opacity:1;stroke:#000000;stroke-width:0"
     d="m 175.73885,20.269049 c 0.3206,-7.878057 0.97815,-14.3456281 1.5129,-14.8806809 1.48419,-1.4850229 218.10774,-2.4352398 426.54738,-1.8710453 100.49171,0.2720062 183.92012,0.7361384 185.39646,1.0314049 1.47633,0.2952665 2.90341,1.1080127 3.1713,1.8061026 0.26788,0.69809 0.75354,7.2495907 1.07923,14.5588897 l 0.59217,13.289635 H 484.60504 175.17179 Z m 22.2912,5.580492 c 3.79384,-1.585165 5.4775,-5.873185 3.98601,-10.151692 -1.19348,-3.423619 -3.1225,-4.592864 -7.5773,-4.592864 -8.80741,0 -10.50008,12.298395 -2.11456,15.363767 2.07629,0.759 2.52348,0.710471 5.70585,-0.619211 z m 22.23891,-0.193632 c 2.36478,-0.90745 4.26144,-5.527773 3.63656,-8.858721 -1.6265,-8.6699498 -15.59014,-7.1482061 -15.59014,1.698998 0,4.569432 2.89255,7.71158 7.09901,7.71158 1.87905,0 4.06361,-0.248336 4.85457,-0.551857 z m 23.51789,-1.788949 c 3.46719,-4.407815 2.03046,-10.254402 -3.04057,-12.373214 -7.89493,-3.2987145 -14.70661,6.131039 -8.93075,12.363296 3.11605,3.36228 9.3303,3.367429 11.97132,0.0099 z"
     id="path958" />
  <path
     style="opacity:0.915;fill:#c390e4;fill-opacity:1;stroke:#000000;stroke-width:0"
     d="m 175.47631,29.095062 c 0.0611,-9.840402 1.5695,-22.6628769 2.75206,-23.3937382 0.63293,-0.3911744 12.11526,-0.7457741 25.51628,-0.7879995 13.40102,-0.042225 24.69276,-0.2790314 25.09274,-0.5262357 1.10882,-0.6852902 524.6598,-0.5263907 544.76311,0.1653376 14.79884,0.5092084 17.70489,0.8301321 18.3293,2.0241584 0.40813,0.7804527 1.03075,7.3157524 1.3836,14.5228874 l 0.64153,13.103883 H 484.69977 175.44462 Z m 23.0368,-3.316045 c 4.79602,-2.480117 5.36704,-11.404729 0.88324,-13.804386 -2.90662,-1.555575 -8.13091,-1.019324 -10.34639,1.062012 -3.21784,3.023002 -2.88745,8.760091 0.6772,11.759551 3.12213,2.627094 5.16448,2.855557 8.78595,0.982823 z m 21.75585,-0.123108 c 2.36478,-0.90745 4.26144,-5.527773 3.63656,-8.858721 -1.6265,-8.6699498 -15.59014,-7.1482061 -15.59014,1.698998 0,4.569432 2.89255,7.71158 7.09901,7.71158 1.87905,0 4.06361,-0.248336 4.85457,-0.551857 z m 23.51789,-1.788949 c 3.49031,-4.437206 2.0287,-10.25514 -3.11642,-12.404908 -7.93862,-3.316966 -14.67599,6.113931 -8.8549,12.39499 3.11605,3.36228 9.3303,3.367429 11.97132,0.0099 z"
     id="path960" />
  <g
     inkscape:groupmode="layer"
     id="layer1"
     inkscape:label="yellowBubble">
    <circle
       cx="278.35889"
       cy="335.73849"
       r="31.480921"
       fill="#ffcf00"
       id="circle40" />
  </g>
  <g
     inkscape:groupmode="layer"
     id="layer2"
     inkscape:label="bubblePurple">
    <circle
       cx="719.53693"
       cy="420.39154"
       r="31.480921"
       fill="#ffcf00"
       id="circle40-7"
       style="fill:#b895e0;fill-opacity:1" />
  </g>
  <g
     inkscape:groupmode="layer"
     id="layer3"
     inkscape:label="bubbleGreen">
    <circle
       cx="724.04388"
       cy="257.62628"
       r="31.480921"
       fill="#3fd2bc"
       id="circle52" />
  </g>
  <g
     inkscape:groupmode="layer"
     id="layer4"
     inkscape:label="arrowGreen">
    <g
       id="g121"
       transform="translate(3.5150158,20.834683)">
      <rect
         x="815.90448"
         y="311.89771"
         width="3.7035501"
         height="32.276428"
         transform="rotate(-33.69007,553.64828,464.90608)"
         fill="#3fd2bc"
         id="rect48" />
      <path
         d="m 796.405,296.01047 c 9.08142,6.58621 21.8606,13.75041 32.216,16.56844 l -18.19,4.46987 -11.11814,15.06975 c 1.38123,-10.64271 -0.31778,-25.19421 -2.90786,-36.10806 z"
         transform="translate(-120.27878,-123.51342)"
         fill="#3fd2bc"
         id="path50" />
    </g>
  </g>
  <g
     inkscape:groupmode="layer"
     id="layer5"
     inkscape:label="arrowPurple">
    <g
       id="g147"
       transform="translate(2.0599008,-0.29741573)">
      <rect
         x="337.82684"
         y="697.62872"
         width="3.7035501"
         height="32.276428"
         transform="rotate(-35.733991)"
         fill="#3fd2bc"
         id="rect48-3"
         style="fill:#b895e0;fill-opacity:1" />
      <path
         d="m 670.48672,346.16387 c 8.61617,7.18412 20.88268,15.1945 31.02427,18.70502 l -18.4502,3.23198 -12.10989,14.285 c 2.09639,-10.52523 1.38338,-25.15822 -0.46418,-36.222 z"
         fill="#3fd2bc"
         id="path50-5"
         style="fill:#b895e0;fill-opacity:1" />
    </g>
  </g>
  <g
     inkscape:groupmode="layer"
     id="layer7"
     inkscape:label="prop1">
    <path
       d="M 475.30068,269.05892 H 341.93481 c -13.62337,-0.0656 -13.68,-20.81753 6.7e-4,-20.88859 h 133.3652 c 13.61381,0.0637 13.68759,20.81721 0,20.88859 z"
       fill="#e6e6e6"
       id="path16" />
  </g>
  <g
     inkscape:groupmode="layer"
     id="layer8"
     inkscape:label="prop2">
    <path
       d="M 476.21934,306.26687 H 342.85347 c -13.62337,-0.0656 -13.68,-20.81753 6.7e-4,-20.88859 h 133.3652 c 13.61381,0.0637 13.68759,20.81726 0,20.88859 z"
       fill="#e6e6e6"
       id="path18" />
  </g>
  <g
     inkscape:groupmode="layer"
     id="layer6"
     inkscape:label="arrowYellow">
    <g
       id="g173"
       transform="translate(-10.031032,9.3965141)">
      <rect
         x="422.07816"
         y="410.76797"
         width="32.276428"
         height="3.7035501"
         transform="rotate(-56.30993,262.68353,463.23452)"
         fill="#3f3d56"
         id="rect36"
         style="fill:#ffcf00;fill-opacity:1" />
      <path
         d="m 459.56767,380.5943 c -9.08141,6.58622 -21.86059,13.75041 -32.216,16.56845 l 18.19,4.46987 11.11815,15.06975 c -1.38126,-10.64272 0.31775,-25.19421 2.90785,-36.10807 z"
         transform="translate(-120.27878,-123.51342)"
         fill="#3f3d56"
         id="path38"
         style="fill:#ffcf00;fill-opacity:1" />
    </g>
  </g>
  <g
     inkscape:groupmode="layer"
     id="layer9"
     inkscape:label="prop3">
    <path
       d="M 477.49751,347.17859 H 344.13164 c -13.62337,-0.0656 -13.68,-20.81753 6.7e-4,-20.88859 h 133.3652 c 13.61381,0.0637 13.68759,20.81726 0,20.88859 z"
       fill="#e6e6e6"
       id="path20" />
  </g>
  <g
     inkscape:groupmode="layer"
     id="layer10"
     inkscape:label="plus">
    <g
       id="g247"
       transform="translate(-4.8125574,0.22228187)">
      <path
         d="m 775.271,326.01154 a 27,27 0 1 1 27,-27 27.03062,27.03062 0 0 1 -27,27 z m 0,-52 a 25,25 0 1 0 25,25 25.02817,25.02817 0 0 0 -25,-25 z"
         transform="translate(-120.27878,-123.51342)"
         fill="#e6e6e6"
         id="path22" />
      <path
         d="m 787.271,298.01154 h -11 v -12.5 a 1,1 0 0 0 -2,0 v 12.5 h -11 a 1,1 0 0 0 0,2 h 11 v 12.5 a 1,1 0 1 0 2,0 v -12.5 h 11 a 1,1 0 0 0 0,-2 z"
         transform="translate(-120.27878,-123.51342)"
         fill="#e6e6e6"
         id="path24" />
    </g>
  </g>
  <g
     inkscape:groupmode="layer"
     id="layer11"
     inkscape:label="plusLine">
    <rect
       x="438.06143"
       y="389.53705"
       width="81.27668"
       height="1.9998699"
       transform="rotate(-20.218085)"
       fill="#e6e6e6"
       id="rect32" />
  </g>
  <g
     inkscape:groupmode="layer"
     id="layer13"
     inkscape:label="times">
    <g
       id="g319"
       transform="translate(-10.409091,3.7969469)">
      <path
         d="m 777.271,474.01154 a 27,27 0 1 1 27,-27 27.03062,27.03062 0 0 1 -27,27 z m 0,-52 a 25,25 0 1 0 25,25 25.02817,25.02817 0 0 0 -25,-25 z"
         transform="translate(-120.27878,-123.51342)"
         fill="#e6e6e6"
         id="path26" />
      <path
         d="m 785.04919,437.81915 -7.77818,7.77817 -8.83883,-8.83883 a 1.000001,1.000001 0 1 0 -1.41422,1.41421 l 8.83884,8.83884 -7.77818,7.77817 a 1.000001,1.000001 0 0 0 1.41422,1.41421 l 7.77817,-7.77817 8.83884,8.83883 a 1,1 0 0 0 1.41421,-1.41421 l -8.83884,-8.83883 7.77818,-7.77818 a 1,1 0 0 0 -1.41421,-1.41421 z"
         transform="translate(-120.27878,-123.51342)"
         fill="#e6e6e6"
         id="path28" />
    </g>
  </g>
  <g
     inkscape:groupmode="layer"
     id="layer14"
     inkscape:label="timesLine">
    <rect
       x="-53.496899"
       y="612.71198"
       width="1.9998634"
       height="81.276413"
       transform="rotate(-68.167734)"
       fill="#e6e6e6"
       id="rect34"
       style="stroke-width:0.999997" />
  </g>
  <g
     inkscape:groupmode="layer"
     id="layer15"
     inkscape:label="headBlack">
    <g
       id="g361"
       transform="translate(0.72535484,4.6018464)">
      <circle
         cx="54.443378"
         cy="407.86667"
         r="24.561029"
         fill="#a0616a"
         id="circle110" />
      <path
         d="m 159.87941,553.20077 a 3.97443,3.97443 0 0 1 -5.69016,0.32691 A 44.42578,44.42578 0 0 1 141.517,536.9789 c -3.19306,-7.611 -3.661,-16.899 -0.027,-24.03305 3.072,-6.03077 8.58662,-9.86968 14.09195,-13.00723 a 22.99375,22.99375 0 0 1 6.84781,-2.89429 8.99361,8.99361 0 0 1 7.154,1.40678 7.54423,7.54423 0 0 1 2.878,7.22723 22.35408,22.35408 0 0 1 9.80208,-7.35654 11.36522,11.36522 0 0 1 7.55375,-0.50594 c 3.53554,1.18009 6.15253,4.75027 7.60882,8.58606 a 19.14076,19.14076 0 0 1 1.25546,9.26373 11.12855,11.12855 0 0 1 -4.2691,7.67142 c -2.88387,1.98989 -6.59927,1.78779 -9.95313,0.90708 -3.35386,-0.88071 -6.60888,-2.37392 -10.02126,-2.79024 -3.41238,-0.41632 -7.19423,0.4863 -9.22732,3.52991 -1.43176,2.14338 -1.7693,4.96688 -2.06144,7.65827 L 161.63,546.64073 a 18.54788,18.54788 0 0 1 -1.27762,5.83956 3.25084,3.25084 0 0 1 -0.47297,0.72048 z"
         transform="translate(-120.27878,-123.51342)"
         fill="#2f2e41"
         id="path112" />
    </g>
  </g>
  <g
     inkscape:groupmode="layer"
     id="layer16"
     inkscape:label="headGreen">
    <g
       id="g389"
       transform="translate(-3.2450183,5.4302375)">
      <circle
         cx="916.03009"
         cy="397.70496"
         r="31"
         fill="#2f2e41"
         id="circle2" />
      <circle
         cx="905.32642"
         cy="408.10498"
         r="24.561029"
         fill="#ffb8b8"
         id="circle76" />
      <path
         d="m 1044.3541,550.48331 c -2.0936,1.1269 -4.702,2.23808 -6.696,0.87816 -1.9467,-1.32763 -2.0852,-4.28319 -1.4133,-6.58 0.6718,-2.29681 1.9322,-4.44281 2.0492,-6.84793 0.1677,-3.447 -2.1339,-6.64614 -4.991,-8.43588 -2.8571,-1.78974 -6.207,-2.44469 -9.4748,-3.0681 l -17.9239,-3.41944 c -4.4367,-0.84641 -9.24003,-1.90368 -12.20064,-5.47533 -4.28386,-5.168 -2.42565,-13.78642 2.64839,-17.97023 5.07405,-4.18381 12.22585,-4.65327 18.61335,-3.247 3.5328,0.77782 6.9785,2.069 10.5662,2.44677 7.0807,0.7455 14.5685,-2.058 21.139,0.85608 5.7197,2.53666 9.1847,8.97819 9.9928,15.38078 0.8081,6.40259 -0.6028,12.83641 -2.1796,19.04908 -0.938,3.69612 -1.9704,7.44772 -4.04,10.5916 -2.0695,3.14388 -5.3774,5.63008 -9.0574,5.67794 z"
         transform="translate(-120.27878,-123.51342)"
         fill="#2f2e41"
         id="path118" />
      <circle
         cx="939.43964"
         cy="378.91684"
         r="20"
         fill="#2f2e41"
         id="circle120" />
    </g>
  </g>
</svg>
